<svg width="204" height="425" viewBox="0 0 204 425" fill="none" xmlns="http://www.w3.org/2000/svg">
<circle cx="144.434" cy="73.5366" r="43" transform="rotate(-3.78224 144.434 73.5366)" fill="#fff"/>
<ellipse cx="111.695" cy="215.004" rx="47" ry="50" transform="rotate(-3.78224 111.695 215.004)" fill="white"/>
<path d="M168.015 19.9543C180.237 30.6987 186.704 45.915 187.777 62.1527C188.26 69.4504 187.834 85.753 182.273 92.582C176.711 99.4111 179.505 75.4136 181.597 62.5612C180.649 48.2229 174.057 34.8447 163.265 25.3571C152.473 15.8695 138.36 11.0459 124.019 11.9431C109.677 12.8402 96.2757 19.3848 86.7499 30.1434C77.2242 40.902 72.3508 54.9974 73.1971 69.3421C72.2501 93.3413 91.2654 106.675 91.2654 106.675C92.0646 107.565 99.0782 115.119 148.722 138.395C143.733 138.725 115.993 128.432 113.971 128.165C111.949 127.898 93.6965 118.481 86.4777 112.044C74.3322 101.213 66.9744 86.0106 66.016 69.7658C65.0575 53.521 70.5765 37.5584 81.3641 25.3747C92.1516 13.191 107.328 5.77945 123.57 4.76349C139.811 3.74752 155.793 9.20999 168.015 19.9543Z" fill="#fff"/>
<circle cx="105.439" cy="218.926" r="62.5" transform="rotate(-3.78224 105.439 218.926)" stroke="#fff" stroke-width="58"/>
<circle cx="105.439" cy="218.926" r="62.5" transform="rotate(-3.78224 105.439 218.926)" stroke="url(#paint0_linear)" stroke-opacity="0.2" stroke-width="58"/>
<circle cx="105.439" cy="218.926" r="62.5" transform="rotate(-3.78224 105.439 218.926)" stroke="url(#paint1_radial)" stroke-opacity="0.2" stroke-width="58"/>
<path d="M102.688 337.111C149.369 335.736 181.834 311.553 192.241 297.638L191.396 312.536L187.963 324.033L173.261 354.645L125.287 375.473L76.6786 376.747L23.2061 423.452C19.3165 399.352 31.5682 339.205 102.688 337.111Z" fill="#fff"/>
<path d="M102.688 337.111C149.369 335.736 181.834 311.553 192.241 297.638L191.396 312.536L187.963 324.033L173.261 354.645L125.287 375.473L76.6786 376.747L23.2061 423.452C19.3165 399.352 31.5682 339.205 102.688 337.111Z" fill="url(#paint2_linear)" fill-opacity="0.2"/>
<path d="M104.783 402.294C58.7986 403.758 31.1412 417.807 23.0605 424.649C23.5834 404.626 40.2289 365.262 102.627 367.991C165.025 370.719 188.223 322.235 192.021 297.652C198.77 357.792 162.263 400.462 104.783 402.294Z" fill="#fff"/>
<path d="M104.783 402.294C58.7986 403.758 31.1412 417.807 23.0605 424.649C23.5834 404.626 40.2289 365.262 102.627 367.991C165.025 370.719 188.223 322.235 192.021 297.652C198.77 357.792 162.263 400.462 104.783 402.294Z" fill="url(#paint3_linear)" fill-opacity="0.2"/>
<defs>
<linearGradient id="paint0_linear" x1="104.939" y1="133.426" x2="96.9395" y2="332.926" gradientUnits="userSpaceOnUse">
<stop stop-color="#fff"/>
<stop offset="1" stop-color="#fff" stop-opacity="0"/>
</linearGradient>
<radialGradient id="paint1_radial" cx="0" cy="0" r="1" gradientUnits="userSpaceOnUse" gradientTransform="translate(157.439 165.426) rotate(130.639) scale(162.752)">
<stop/>
<stop offset="0.999576" stop-color="#fff"/>
</radialGradient>
<linearGradient id="paint2_linear" x1="182.559" y1="298.247" x2="24.9365" y2="397.811" gradientUnits="userSpaceOnUse">
<stop stop-color="#fff"/>
<stop offset="1"/>
</linearGradient>
<linearGradient id="paint3_linear" x1="187.371" y1="318.133" x2="31.2629" y2="413.445" gradientUnits="userSpaceOnUse">
<stop stop-color="#fff"/>
<stop offset="1" stop-color="#fff" stop-opacity="0.96"/>
</linearGradient>
</defs>
</svg>
